<svg xmlns="http://www.w3.org/2000/svg" xmlns:xlink="http://www.w3.org/1999/xlink" xmlns:fi="http://pattern.flaticon.com/" x="0" y="0" width="700" height="350" viewBox="0 0 700 350"><rect x="0px" y="0px" width="100%" height="100%" opacity="0" fill="#f9ffeb"/><defs><g transform="matrix(0.181667455548227 -0.048677648005164297 0.048677648005164297 0.181667455548227 132.13675876093728 150.23702459512168)" id="L1_23"><path d="M184.591,11.111c-6.12-1.225-15.3-7.956-21.42-4.284c-2.448,1.224-1.836,4.284,0,5.508    c2.448,1.836,6.732,1.836,10.404,2.448c3.672,0.611,6.732,0.611,10.404,0C186.427,14.783,187.039,11.111,184.591,11.111z"/><path d="M123.391,10.499c-5.508,1.224-11.016,2.448-16.524,3.672c-4.896,1.224-9.792,1.836-13.464,5.508    c-1.836,1.836-1.224,4.896,1.224,5.508c4.896,1.225,9.18-1.224,14.076-3.06c5.508-2.448,11.016-4.284,16.524-7.344    C128.287,13.559,126.451,9.887,123.391,10.499z"/><path d="M63.416,39.263c-3.672,1.225-6.732,3.672-9.792,6.12c-1.836,1.836-3.672,3.672-4.896,5.508    c-1.836,1.836-3.672,3.061-3.672,6.12c0,1.836,1.224,3.061,3.06,3.061c4.284,0.611,6.732-4.896,8.568-7.956    c2.448-3.061,4.284-6.732,7.956-9.181C66.475,41.711,65.863,38.65,63.416,39.263z"/><path d="M28.531,90.671c-5.508,2.448-9.792,6.12-12.852,11.016c-3.672,4.896-8.568,12.24-7.956,18.973    c0,3.06,3.672,3.672,5.508,1.224c3.06-4.896,3.672-11.016,6.732-15.912c2.448-4.896,6.732-9.18,11.016-12.852    C32.203,91.895,30.367,89.447,28.531,90.671z"/><path d="M8.947,157.991c0-1.836-3.06-1.836-3.06,0c-0.612,4.896-1.224,10.403-1.836,15.3c-0.612,4.284-2.448,8.567-2.448,12.852    c-0.612,3.061,4.284,3.672,5.508,1.224C11.396,179.411,10.171,167.783,8.947,157.991z"/><path d="M15.679,243.059c-2.448-4.896-4.284-10.404-6.732-15.3c-0.612-1.836-3.672-1.225-3.06,0.612    c1.224,5.508,3.06,11.016,4.284,16.523c1.224,3.672,1.836,7.956,5.508,10.404c1.836,1.224,3.06-0.612,3.672-1.836    C19.351,249.791,16.903,246.118,15.679,243.059z"/><path d="M50.563,307.931c-2.448-2.448-5.508-4.284-7.956-6.732c-2.448-3.06-4.896-6.731-5.508-10.403    c0-1.836-3.06-1.225-3.06,0.611c0,4.284,1.224,8.568,3.672,12.24c1.836,3.672,5.508,8.568,9.792,9.18    C50.563,312.826,52.399,310.379,50.563,307.931z"/><path d="M103.807,349.547c-3.672-3.061-8.568-4.284-12.852-6.732c-4.896-3.06-9.18-7.344-12.852-11.628    c-1.224-1.224-2.448,0.612-1.836,1.836c3.06,5.508,6.732,9.792,11.628,13.464c4.284,3.061,9.792,7.345,15.3,7.345    C103.807,353.219,105.031,350.771,103.807,349.547z"/><path d="M176.023,367.906c-9.18-4.896-22.032-3.06-32.436-5.508c-1.224-0.611-1.836,1.836-0.612,1.836    c4.896,1.836,9.18,3.061,14.076,4.284c5.508,1.224,11.628,3.672,17.748,3.672C177.247,372.19,177.859,369.131,176.023,367.906z"/><path d="M239.06,360.562c-4.284-1.224-9.181-0.612-14.076,0c-4.896,0.612-10.404,0.612-15.3,1.225c-2.448,0-2.448,3.672,0,3.672    c4.896,0.611,10.403,0.611,15.3,1.224c4.896,0,9.18,1.224,14.076,0C241.507,366.07,241.507,361.787,239.06,360.562z"/><path d="M308.827,307.931c-4.284,3.672-6.731,9.18-10.404,13.464c-3.672,3.672-9.18,6.732-14.075,8.568    c-2.448,1.224-0.612,4.283,1.836,3.672c5.508-1.225,11.016-3.672,15.3-7.344c4.896-4.284,11.628-9.792,12.24-16.524    C313.724,307.318,310.663,306.707,308.827,307.931z"/><path d="M352.279,248.566c-7.956,11.017-12.852,23.256-23.868,31.824c-1.836,1.224,0.612,3.672,2.448,3.06    c11.628-6.731,23.256-19.584,27.54-32.436C359.012,247.343,354.115,245.507,352.279,248.566z"/><path d="M365.743,184.919c-3.06,3.672-3.672,9.18-4.896,14.075c-1.836,6.12-4.284,12.853-7.345,18.36    c-1.224,2.448,2.448,4.284,3.672,2.448c3.061-4.896,6.12-9.792,7.956-15.3c2.448-5.509,5.509-11.628,5.509-17.748    C370.027,184.307,367.579,183.083,365.743,184.919z"/><path d="M361.459,131.675c0-6.12,0.612-12.24-0.611-18.36c-0.612-2.447-4.896-2.447-5.509,0c-3.06,12.24,0.612,27.54,3.673,39.168    c0.611,2.448,4.283,1.225,3.672-1.224C362.071,144.527,361.459,138.407,361.459,131.675z"/><path d="M335.755,62.519c-3.06-4.284-6.731-11.016-12.239-11.628c-1.225,0-3.061,1.225-2.448,2.448    c0.612,4.896,5.508,7.956,9.18,11.016c4.284,4.284,8.568,9.181,11.628,14.688c0.612,1.224,3.061,0.612,2.448-1.224    C342.487,72.923,339.428,67.415,335.755,62.519z"/><path d="M302.707,32.531c-3.672-2.448-7.344-4.896-11.016-7.956c-3.672-3.061-7.344-7.956-11.628-9.181    c-2.448-0.611-5.508,1.836-4.284,4.284c1.836,4.896,7.344,7.956,11.628,10.404c4.284,3.06,8.568,4.896,13.464,6.731    C303.932,39.263,305.768,34.367,302.707,32.531z"/><path d="M304.543,0.707c-18.972-1.225-37.943-0.612-56.916,0c-4.283,0-7.956,6.731-4.283,9.792    c6.731,5.508,11.016,14.076,17.136,20.808c3.672,3.061,7.956-1.836,4.896-4.896c-3.06-4.284-6.12-9.181-8.567-13.464    c15.912,0.611,31.212,0.611,47.124,0C311.888,11.723,311.888,1.319,304.543,0.707z"/></g><g transform="matrix(0.21388600995349089 0.05731058363935295 -0.05731058363935295 0.21388600995349089 -31.817528806247367 294.7702012203071)" id="L1_24"><path d="M188.087,67.932c0.612-6.732-10.404-7.956-12.24-1.836c-12.852,49.572-9.18,105.264-7.344,156.06    c1.836,56.304,6.732,111.996,7.956,168.3c0,6.732,9.792,6.732,9.792,0c1.224-52.632-2.448-104.651-4.284-157.284    C181.355,177.48,185.639,123.012,188.087,67.932z"/><path d="M229.092,61.812c-1.225-7.344-13.465-5.508-12.853,1.836c11.016,113.832-12.24,225.216-6.12,338.436    c0.612,6.12,8.568,5.508,9.18,0c3.673-57.527,8.568-115.056,12.853-172.584C236.436,175.032,240.107,116.892,229.092,61.812z"/><path d="M274.379,84.456c-21.42-29.376-47.124-55.692-70.992-82.62c-2.448-2.448-7.344-2.448-9.792,0    c-15.3,17.136-31.212,33.66-45.288,51.408c-7.956,9.792-15.912,18.36-17.748,30.6c-0.612,3.06,4.284,3.672,5.508,0.612    c3.06-9.18,17.748-21.42,24.48-28.152c12.24-13.464,24.48-26.928,37.944-39.78c20.809,25.092,44.064,48.96,63.036,75.276    C267.035,100.368,280.499,92.412,274.379,84.456z"/></g><g transform="matrix(0.1095680296421051 0 0 0.1095680296421051 155 330)" id="L1_25"><path d="M44.982,3.271c-3.672,2.448-8.568,3.06-11.628,6.12c-2.448,1.836-2.448,5.508,0,7.344c2.448,1.224,5.508,0,7.956-0.612    c1.836-0.612,2.448-1.836,2.448-3.672c1.836-1.224,3.672-2.448,4.896-4.284C51.102,5.719,48.042,0.823,44.982,3.271z"/><path d="M20.502,39.379c-3.672,3.06-7.344,6.732-10.404,10.404c-3.06,3.672-6.732,8.568-6.732,12.852    c0,2.448,3.06,3.672,4.284,1.836c3.06-3.06,3.672-7.956,6.12-11.628c2.448-4.284,5.508-7.344,9.18-11.016    C24.174,39.991,21.726,38.155,20.502,39.379z"/><path d="M5.814,94.459C4.59,89.563,3.978,84.055,3.978,78.547c0-1.836-3.06-1.836-3.06,0c0,7.344-3.672,22.032,3.672,26.928    c1.224,1.224,3.06-0.612,3.06-1.836C7.65,100.579,6.426,97.519,5.814,94.459z"/><path d="M40.086,117.715c-9.792,1.224-18.36,3.06-27.54-1.836c-1.224-0.612-1.836,0.612-0.612,1.224    c9.18,6.732,19.584,9.792,29.988,4.284C44.37,120.163,41.922,117.103,40.086,117.715z"/><path d="M84.15,85.891c-4.896,1.836-8.568,5.508-12.852,8.568c-4.896,3.672-9.18,7.344-13.464,11.628    c-1.224,1.224,0.612,3.672,2.448,2.448c3.672-3.672,7.956-6.12,12.24-9.18c4.284-3.06,9.792-5.508,13.464-9.18    C87.822,88.339,86.598,84.667,84.15,85.891z"/><path d="M125.154,41.827c-11.016,4.284-21.42,14.688-29.376,23.256c-1.224,1.836,0.612,3.672,2.448,2.448    c4.896-4.284,10.404-8.568,15.912-12.24c4.284-3.06,9.18-5.508,12.852-9.18C128.826,43.663,126.99,41.215,125.154,41.827z"/><path d="M179.622,19.183c-11.016-0.612-22.032,3.672-31.824,7.344c-1.836,0.612-1.224,3.06,0.612,3.06    c10.404-3.06,20.808-4.284,31.212-4.896C182.682,24.079,182.682,19.183,179.622,19.183z"/><path d="M220.626,39.379c-3.06-3.672-7.344-7.344-11.016-10.404c-3.06-2.448-6.732,1.224-4.284,4.284    c3.061,3.06,6.12,6.732,9.18,10.404c3.061,3.672,6.12,9.18,10.404,12.24c1.836,1.224,4.284-0.612,3.672-3.06    C228.582,47.947,224.298,43.051,220.626,39.379z"/><path d="M232.254,72.427c0-2.448-4.283-2.448-4.283,0c-0.612,6.12-1.836,11.628-3.061,17.748    c-1.224,5.508-4.284,11.016-4.284,17.136c0,3.06,4.284,4.284,5.509,1.224C231.643,98.131,232.866,83.443,232.254,72.427z"/><path d="M205.938,134.239c-3.061,4.284-6.12,8.568-9.181,12.852c-2.447,4.284-6.731,8.568-7.344,13.464    c0,2.448,2.448,3.06,4.284,2.448c4.284-1.836,6.12-7.344,7.956-11.016c3.06-4.896,5.508-10.404,8.568-15.3    C211.446,133.627,207.774,131.791,205.938,134.239z"/><path d="M175.338,178.915c-5.508,4.896-9.792,9.792-13.464,15.3c-3.672,5.508-8.568,13.464-7.344,20.196    c0.612,3.06,3.672,3.672,5.508,1.224c3.06-4.284,3.672-10.404,5.508-15.3c2.448-7.344,6.732-14.076,11.628-20.196    C178.398,179.527,176.562,177.691,175.338,178.915z"/><path d="M140.454,238.891c-5.508,4.896-9.792,10.404-13.464,17.136c-3.672,6.732-7.956,15.301-6.732,22.645    c0.612,2.448,4.284,2.448,4.896,0.612c3.672-5.509,3.672-12.853,6.12-18.973c2.448-6.731,6.732-13.464,11.628-19.584    C144.126,239.503,142.29,237.055,140.454,238.891z"/><path d="M139.842,332.526c-4.284-2.447-7.956-4.283-11.016-7.955c-3.06-4.896-4.284-12.24-4.284-17.748c0-1.837-3.06-1.837-3.06,0    c-1.224,11.628,1.224,31.823,17.136,31.212C141.066,337.423,142.29,333.751,139.842,332.526z"/><path d="M204.714,353.947c-6.731-0.612-13.464,0.611-20.195,0.611c-8.569-0.611-16.525-3.06-23.257-7.956    c-1.224-0.611-1.836,1.225-1.224,1.836c12.852,9.792,30.601,18.36,46.513,11.628C209.61,358.23,207.774,353.947,204.714,353.947z"/><path d="M256.734,312.331c-4.284,2.448-7.956,6.12-12.852,9.18c-4.284,2.448-9.181,3.672-14.076,4.284    c-3.061,0.612-3.061,4.896,0,4.896c11.016,0.612,25.092-3.06,31.212-13.464C263.467,314.167,259.794,311.106,256.734,312.331z"/><path d="M281.826,275.61c-7.956,7.956-16.523,16.524-22.032,26.316c-1.836,3.061,2.448,4.896,4.284,2.448    c6.732-8.568,17.748-14.688,22.645-25.092C287.334,276.223,284.274,273.163,281.826,275.61z"/><path d="M327.727,276.223c-1.836-3.672-6.732-6.12-10.404-7.956c-4.284-1.836-9.18-2.447-14.076-2.447c-3.06,0-3.06,4.283,0,4.283    c4.284,0,7.956,1.225,11.628,3.061c3.061,1.836,5.509,4.896,8.568,6.731C325.891,281.73,328.95,278.671,327.727,276.223z"/><path d="M364.446,300.091c-8.568-14.076-14.076-29.988-21.42-44.676c-3.672-6.732-13.464-0.612-10.404,6.12    c5.508,12.239,10.404,25.092,17.748,36.72c-5.508,0.612-11.016,1.224-17.136,1.836c-2.448,0.612-6.732,0.612-8.568,3.061    l-0.611,0.611c0,0-0.612,0-0.612,0.612c-1.224,1.224,0,3.672,1.224,3.672l0,0c0.612,0.612,1.225,0.612,2.448,0.612    c3.061,0.611,6.12,0,9.792,0c7.956-0.612,15.3-1.225,23.256-0.612C363.834,308.659,366.282,303.763,364.446,300.091z"/></g><g transform="matrix(0.132351815700531 0 0 0.132351815700531 62.5 237.5)" id="L1_26"><path d="M22.03,39.78c0-3.672-6.12-3.672-6.12,0c-0.612,7.344-2.448,16.524,0.612,23.256c0.612,1.836,3.672,1.836,4.896,0    C24.478,56.304,22.642,46.512,22.03,39.78z"/><path d="M17.746,102.816c0-1.836-2.448-1.836-3.06,0c-1.224,11.628-3.06,23.256-1.224,34.884c0.612,3.672,5.508,3.672,6.12,0    C20.194,126.072,18.97,114.444,17.746,102.816z"/><path d="M18.358,178.704c0-3.06-3.672-2.448-4.284,0c-1.224,9.792-7.344,22.644-3.672,32.437c1.224,2.447,4.284,2.447,4.896,0    c1.836-4.896,1.836-10.404,1.836-15.912C18.358,189.72,18.358,184.212,18.358,178.704z"/><path d="M11.014,238.068c-0.612-1.225-3.06-1.225-2.448,0.611c2.448,10.404,0,21.421,1.836,31.824    c0.612,2.448,4.284,2.448,4.896,0C17.134,260.712,14.686,247.86,11.014,238.068z"/><path d="M48.958,319.464c-3.672-3.672-7.956-6.12-12.24-9.792c-3.672-3.06-6.732-6.12-10.404-9.18    c-1.836-1.224-3.672,0.612-2.448,2.448c6.732,6.731,13.464,15.3,22.644,19.584C48.346,323.136,50.794,321.3,48.958,319.464z"/><path d="M108.322,340.272c-10.404-1.836-21.42,0-32.436,0.611c-2.448,0-2.448,3.672,0,4.284    c10.404,0.612,22.032,2.448,32.436,0.612C110.77,345.168,110.77,340.884,108.322,340.272z"/><path d="M178.702,347.004c-9.18-5.508-22.644-3.672-33.048-3.672c-3.672,0-3.672,5.508,0,5.508c5.508,0,11.628,0.612,17.136,1.225    c4.896,0.611,9.792,1.836,14.688,2.447C179.926,352.512,181.15,348.229,178.702,347.004z"/><path d="M241.125,346.393c-4.284-1.225-8.568-0.612-12.853-0.612s-9.18,0-13.464,0.612c-3.672,0-3.672,5.508,0,5.508    c4.284,0,9.18,0,13.464,0.611c4.284,0,8.568,0.612,12.853-0.611C244.185,351.288,244.185,347.616,241.125,346.393z"/><path d="M304.773,349.452c-7.344-1.224-15.3,0-23.256,0c-3.672,0-3.672,6.12,0,6.12c7.344,0.612,15.3,1.224,23.256,0    C307.833,354.96,307.833,350.064,304.773,349.452z"/><path d="M361.689,353.124c-7.344-11.628-18.359-23.256-29.987-30.6c-4.896-3.061-11.629,4.896-6.732,8.567    c9.18,7.345,17.748,14.688,25.092,23.868c-7.956,6.732-17.136,12.853-26.315,16.524c-3.673,1.836-1.225,7.344,2.447,6.12    c12.24-3.673,22.032-12.24,33.048-17.748C362.301,358.632,363.525,355.572,361.689,353.124z"/><path d="M357.405,288.252c-2.447-6.731-1.836-13.464,0-20.195c1.225-3.673-4.283-6.12-6.119-2.448    c-4.896,7.956-4.284,17.748,0,25.704C353.122,294.372,359.241,291.924,357.405,288.252z"/><path d="M359.241,208.692c-6.119,7.344-4.896,20.808-3.672,29.987c0.612,3.061,3.672,3.061,4.284,0    c0.612-4.896,0.612-10.403,1.836-15.3c0.612-4.284,1.836-8.567,1.836-12.852C362.914,208.692,360.465,206.856,359.241,208.692z"/><path d="M364.75,138.924c-8.568,6.732-7.345,20.808-6.732,30.6c0,3.06,4.896,3.06,4.896,0c0-4.284,0.611-9.18,1.224-13.464    c1.224-4.896,4.284-9.18,4.896-14.076C370.257,138.312,367.197,137.088,364.75,138.924z"/><path d="M363.525,76.5c-0.611-3.06-4.896-3.06-6.12,0c-2.447,7.956,0.612,17.748,0.612,26.316c0,2.448,4.284,2.448,4.284,0    C362.914,94.248,365.973,84.456,363.525,76.5z"/><path d="M348.837,39.78c-9.181-3.06-22.645-6.12-31.212,0.612c-2.448,1.836-1.836,5.508,1.836,6.12    c4.284,0,7.956-1.224,12.24-1.836c4.896-0.612,10.403,0,15.3,1.836C351.286,47.124,352.509,41.004,348.837,39.78z"/><path d="M275.397,36.72c-4.896-0.612-9.792-1.224-14.688-1.224c-1.225,0-3.061,0.612-3.672,1.836    c-0.612,1.836-0.612,2.448,0,4.284c0.611,1.224,2.447,1.836,3.672,1.836c4.896,0,9.792-1.224,14.688-1.224    C279.069,42.228,279.069,36.72,275.397,36.72z"/><path d="M218.481,33.66c-4.284-0.612-8.567-1.224-12.852-1.224c-3.672,0-7.344-1.224-11.017,0.612    c-2.447,1.224-2.447,4.896,0,5.508c3.061,1.836,6.12,1.224,9.792,0.612c4.896-0.612,9.181-0.612,14.076-1.224    C221.542,38.556,221.542,34.272,218.481,33.66z"/><path d="M148.714,36.72c-3.672-0.612-7.344-1.836-11.016-3.06s-7.344-3.672-11.628-3.672c-3.672,0-4.284,3.672-2.448,6.12    c3.06,3.672,7.344,4.284,11.628,5.508c4.284,1.224,8.568,1.836,12.852,1.224C152.386,42.228,152.386,36.72,148.714,36.72z"/><path d="M94.858,37.332c-3.672-0.612-7.956-1.224-11.628-1.836c-3.672-0.612-6.732-2.448-10.404-1.836    c-2.448,0-3.06,1.836-3.06,4.284c1.224,9.18,18.972,5.508,25.092,4.896C97.917,41.616,97.917,37.332,94.858,37.332z"/><path d="M85.678,0C67.318,1.224,50.182,16.524,37.33,28.764c-2.448,1.836-1.836,5.508,0,7.956    c9.18,9.792,18.36,20.196,31.212,24.48c3.672,1.224,6.12-4.896,2.448-6.12c-9.18-4.284-17.748-12.24-23.256-21.42    c4.896-4.896,9.792-9.18,15.912-12.852C70.99,15.3,80.17,13.464,87.514,7.956C91.186,6.12,90.574,0,85.678,0z"/></g><path d="M371.682,143.271c-14.688-44.676-26.316-90.576-50.797-131.58c-2.447-4.284-10.403-5.508-12.239,0   c-17.748,42.228-36.108,83.844-47.736,127.908c-1.836,7.344,7.344,12.852,12.852,7.344c10.404-10.404,21.421-20.196,33.049-28.764   c-1.225,90.576,1.836,195.84-105.876,223.992c-47.736,12.24-100.98,5.509-140.76-25.092C18.557,284.644,9.377,231.4,12.437,181.828   c0-4.896-7.344-6.12-8.568-1.224c-23.868,110.772,66.096,197.064,176.256,181.764c54.468-7.344,100.368-33.048,123.624-85.068   c20.809-46.512,19.584-102.204,18.36-153c11.628,10.404,24.479,19.584,37.943,26.928   C366.173,154.9,374.129,150.004,371.682,143.271z M316.602,102.88c-3.672-1.224-6.12,0.612-7.345,3.672c0,0,0,0-0.611,0.612   c-9.792,3.06-18.36,7.956-26.316,13.464c9.18-29.988,21.42-59.364,33.048-88.128c15.912,29.988,25.092,62.424,35.496,94.248   C339.857,117.568,329.453,108.388,316.602,102.88z" transform="matrix(0.053743790835142136 0 0 0.053743790835142136 77.5 340)" id="L1_27"/><g transform="matrix(0.056761421263217926 0 0 0.056761421263217926 252.5 340)" id="L1_28"><path d="M255.432,37.172c-7.956-15.3-20.808-28.152-36.107-36.108c-4.284-2.448-10.404-0.612-11.628,4.896    c-1.225,4.284-3.061,8.568-4.896,12.24C153.84-4.444,95.699,20.036,58.979,54.308c-41.616,39.168-62.424,102.816-45.9,157.896    c1.837,7.344,12.24,4.283,11.017-3.061c-7.956-51.408,6.12-99.756,40.392-138.924c37.332-42.228,82.008-45.9,133.416-40.392    c-1.224,3.672-1.836,7.344-1.836,11.016c0,3.06,1.225,4.896,3.673,5.508c0,1.224,0,3.06,0.611,4.284    c3.672,7.956,12.853,6.732,20.196,5.508c11.016-1.224,22.644-3.672,32.436-8.568C256.656,45.74,257.268,40.231,255.432,37.172z     M210.144,40.844c-0.611,0-1.224,0-2.447,0c1.224-7.344,5.508-14.688,9.791-22.032c7.345,4.896,13.465,11.016,18.973,18.36    c-5.508,1.836-11.017,2.448-16.524,3.06C216.876,40.844,213.204,40.844,210.144,40.844z"/><path d="M297.048,318.08c58.752-74.664,80.172-204.408-9.18-265.608c-5.509-3.672-11.628,4.896-6.732,9.18    c71.604,67.32,63.036,173.196,4.896,246.636c-1.836-1.837-4.284-3.061-6.12-4.284c0-6.12-7.956-11.017-12.853-5.508    c-11.016,12.239-14.688,27.539-18.972,43.451c-1.224,4.896,2.448,10.404,7.956,10.404c17.136,0,34.884-3.672,50.796-11.016    c4.284-2.448,4.896-9.181,1.836-12.24C303.78,324.812,300.72,321.752,297.048,318.08z M273.18,314.407    c5.508,4.896,10.404,10.404,15.3,15.912c-7.344,2.448-15.3,3.672-23.256,4.896C267.06,327.872,269.508,320.527,273.18,314.407z"/><path d="M219.936,321.14c-36.72,14.076-63.648,15.912-100.979-0.612c-27.54-12.239-51.408-31.212-71.604-52.02    c4.896-3.672,9.792-7.344,15.3-11.016c4.896-3.673,4.896-9.793,0-13.465c-13.464-9.18-29.376-16.523-45.288-20.808    c-4.284-1.224-8.567,1.224-9.792,5.508c-3.06,11.017-4.284,21.42-2.447,33.048c1.224,7.956,5.508,20.809,13.464,24.48    c3.672,1.836,9.792,0,9.18-5.508l0,0c3.06-1.836,6.12-3.061,9.18-4.896c19.584,28.764,51.408,50.796,83.232,63.036    c30.6,12.24,80.784,22.644,105.264-7.344C229.728,327.26,226.668,318.691,219.936,321.14z M21.035,260.552    c-1.836-6.732-1.224-13.464,0-19.584c9.181,3.06,17.748,7.344,26.316,12.24c-6.732,6.731-14.688,11.628-22.644,17.136    C23.483,266.06,21.647,263.611,21.035,260.552z"/></g><g transform="matrix(0.2386539876461029 0 0 0.2386539876461029 217.5 217.5)" id="L1_29"><path d="M16.808,330.236c-1.836-2.449-4.896-4.285-7.344-6.732c-2.448-2.447-4.284-6.119-6.12-9.18    c-1.224-1.836-4.284-0.611-3.06,1.225c2.448,6.119,6.732,17.135,14.076,17.748C16.808,333.908,18.032,332.072,16.808,330.236z"/><path d="M63.932,357.775c-3.672-2.447-7.956-3.059-12.24-4.283c-4.896-1.836-9.792-3.672-13.464-6.732    c-1.224-0.611-2.448,0.613-1.836,1.836c6.12,6.732,16.524,14.076,26.316,14.688C65.156,362.671,65.768,359,63.932,357.775z"/><path d="M101.875,332.683c-3.06,3.061-5.508,6.732-9.18,9.18c-3.672,2.449-7.344,3.061-11.628,3.672    c-2.448,0.613-1.224,3.061,0.612,3.674c10.404,1.223,20.196-3.674,24.48-12.854C106.771,333.296,103.711,330.236,101.875,332.683z    "/><path d="M111.056,295.351c-0.612-0.611-1.836-0.611-3.06,0c-2.448,2.449-1.836,5.508-1.836,7.957    c0,4.283-0.612,7.955-2.448,11.627c-0.612,2.449,2.448,3.672,3.672,1.836c1.836-3.672,3.06-7.344,3.672-11.016    C112.892,302.695,114.116,297.8,111.056,295.351z"/><path d="M98.204,278.828c-3.672-1.836-6.732-4.896-9.792-7.344c-3.06-3.061-5.508-6.121-9.18-8.568    c-2.448-1.225-4.896,1.225-3.672,3.672c2.448,3.672,6.12,6.732,9.792,9.793c3.06,2.447,6.732,4.895,10.404,6.73    C98.815,284.335,101.264,280.664,98.204,278.828z"/><path d="M55.976,259.244c-4.284,0-7.956,0.611-11.628,2.447c-3.06,1.836-7.344,5.508-7.344,9.182c0,1.836,2.448,3.672,4.284,2.447    c2.448-1.836,4.284-4.285,6.12-6.121c2.448-1.836,5.508-3.059,7.956-3.059C59.036,264.14,59.647,259.855,55.976,259.244z"/><path d="M55.976,303.308c-2.448-3.672-2.448-8.568-1.224-12.24c0.612-1.836-2.448-3.061-3.06-1.225    c-1.836,4.896-3.06,9.18-1.836,14.076c1.224,4.283,4.284,10.404,8.568,11.629c1.836,0.611,3.672-1.225,3.06-3.061    C60.872,308.816,57.812,306.367,55.976,303.308z"/><path d="M98.204,325.951c-2.448-1.223-5.508-0.611-8.568-1.836c-3.672-1.223-6.732-3.672-9.792-6.119    c-1.836-1.836-4.284,0.611-2.448,2.447c4.284,4.896,13.464,13.465,20.808,11.018C100.651,330.236,100.651,326.564,98.204,325.951z    "/><path d="M155.731,313.099c-7.956,4.896-15.912,9.793-24.48,12.852c-2.448,1.225-1.836,4.896,1.224,4.285    c9.792-2.449,20.808-4.285,26.928-13.465C161.24,314.935,158.18,311.876,155.731,313.099z"/><path d="M178.988,273.931c-0.612-2.447-3.672-2.447-4.896-1.223c-3.06,2.447-4.284,7.955-6.732,11.627    c-2.448,3.672-5.508,7.344-8.568,11.016c-1.836,1.836,1.224,4.896,3.06,3.061c4.284-3.672,7.956-7.344,11.628-11.016    C176.54,283.724,180.211,278.828,178.988,273.931z"/><path d="M184.496,223.136c-1.224-1.836-4.896-1.225-4.284,1.223c0.612,9.793,4.284,18.973,4.284,28.152    c0,1.836,2.448,1.836,2.448,0C187.556,242.72,190.003,231.703,184.496,223.136z"/><path d="M174.704,201.103c-1.836-3.672-3.672-7.344-6.732-10.404c-3.06-3.671-6.12-8.567-10.404-9.791    c-1.836-0.612-4.284,1.224-3.06,3.06c1.224,3.672,4.896,6.12,7.344,8.567c3.06,3.061,6.732,6.732,9.18,10.404    C172.868,205.388,175.928,203.552,174.704,201.103z"/><path d="M133.7,165.607c-3.672-3.672-7.956-5.508-12.852-7.344c-5.508-1.224-12.852-2.448-17.748-0.612    c-3.06,1.224-3.06,4.896,0,6.12c9.18,3.672,19.584-1.224,28.152,5.508C133.087,170.503,134.924,167.443,133.7,165.607z"/><path d="M95.755,178.459c-8.568,7.344-23.256,23.868-13.464,35.497c1.836,1.836,4.896,0.611,5.508-1.225    c1.224-4.896,0-9.793,1.224-14.076c1.836-6.121,6.12-11.628,9.792-16.524C100.651,179.072,97.592,176.624,95.755,178.459z"/><path d="M111.667,241.496c-3.672-3.061-7.344-5.508-11.016-8.568c-3.672-3.672-6.12-7.955-8.568-12.24    c-0.612-1.836-3.672-0.611-3.06,1.225c2.448,9.791,8.568,24.48,20.808,23.867C111.667,245.779,113.503,242.72,111.667,241.496z"/><path d="M151.448,256.796c-7.344-1.836-15.3-0.613-21.42-5.51c-1.224-1.223-3.06,0.613-1.836,1.838    c6.12,6.73,15.3,9.18,23.868,7.344C153.284,260.468,153.284,257.408,151.448,256.796z"/><path d="M205.916,265.976c-7.956-4.896-20.809-3.672-29.988-2.449c-2.448,0-2.448,3.672,0,4.285    c4.896,0.611,10.404,0.611,15.3,1.836c4.284,0.611,8.568,2.447,12.852,2.447C207.752,271.484,208.363,267.199,205.916,265.976z"/><path d="M254.264,243.332c-4.896,1.836-7.956,4.896-12.24,7.955c-4.284,3.674-8.567,6.121-13.464,8.568    c-2.448,1.225-0.612,5.508,1.836,4.896c4.896-1.225,8.568-3.672,12.852-6.119c4.896-3.061,9.793-6.121,14.076-10.404    C259.159,246.392,257.323,242.107,254.264,243.332z"/><path d="M279.968,198.044c-0.612-2.449-4.284-2.449-4.896,0c-1.836,6.73-3.672,12.852-7.956,18.359    c-1.224,1.836,0.612,3.672,2.448,2.447C275.684,213.343,281.191,207.224,279.968,198.044z"/><path d="M279.355,146.636c-1.836-2.448-5.508-0.612-4.896,1.836c2.447,7.956,3.06,16.524,3.672,24.48c0,2.448,4.284,2.448,4.284,0    C283.64,164.384,284.863,154.592,279.355,146.636z"/><path d="M260.384,95.84c-1.836-2.448-4.896,0.612-3.672,3.06c3.672,8.568,9.18,16.524,13.464,25.092    c0.612,1.836,3.672,0.612,3.06-1.224C270.788,112.976,267.115,103.184,260.384,95.84z"/><path d="M231.619,80.54c-5.508-5.508-15.911-13.464-24.479-10.404c-2.448,0.612-2.448,4.284,0,4.896    c3.672,1.224,7.344,0.612,11.016,1.836S225.5,80.54,228.56,83.6C230.396,84.824,232.844,82.375,231.619,80.54z"/><path d="M188.78,77.479c-5.508,0-10.404,1.224-14.076,5.508c-3.06,3.672-7.956,11.628-4.896,16.524    c1.224,2.448,4.284,1.836,6.12,0c1.224-1.836,1.224-3.06,1.224-4.896s0.612-4.284,1.836-6.12c1.836-3.672,5.508-7.956,9.792-8.568    C190.615,79.928,190.615,77.479,188.78,77.479z"/><path d="M201.02,140.516c-3.06-4.284-7.956-7.344-11.017-11.016c-3.671-4.284-6.119-9.18-8.567-14.076    c-1.224-2.448-4.896-0.612-4.284,1.836c2.448,9.792,9.792,24.48,20.196,27.54C199.796,145.412,202.243,142.352,201.02,140.516z"/><path d="M250.592,168.056c-4.896-2.448-9.792-3.06-15.3-4.896c-7.345-1.836-13.465-5.508-18.973-10.404    c-2.447-2.448-6.12,1.224-3.672,3.672c8.568,9.18,23.868,17.136,36.72,17.136C251.815,173.563,253.04,169.28,250.592,168.056z"/><path d="M300.775,127.052c-3.06,3.06-3.672,7.344-4.896,11.016c-1.836,4.896-4.284,10.404-7.345,14.688    c-2.447,2.448,1.225,6.12,3.673,3.672c3.672-3.672,6.731-7.956,9.18-12.24s5.508-9.792,4.896-14.688    C305.672,127.052,302.611,125.216,300.775,127.052z"/><path d="M316.688,82.988c-7.956,6.732-10.404,20.808-9.792,30.6c0,3.06,4.284,3.06,4.896,0c0.611-4.284,1.836-9.18,3.06-13.464    c1.836-4.896,5.508-9.18,6.732-14.076C321.584,82.988,318.523,81.151,316.688,82.988z"/><path d="M341.168,50.552c-3.672-0.612-6.732,2.448-9.181,4.284c-3.06,2.448-4.896,6.12-6.12,9.18    c-1.224,3.06,3.061,5.508,4.284,2.448c1.836-2.448,3.061-4.896,5.508-7.344c2.448-1.836,6.12-2.448,7.345-5.508    C343.615,53,343.004,51.164,341.168,50.552z"/><path d="M375.439,36.476c-1.224-6.12-3.06-12.852-5.508-18.972c-0.612-1.836-2.448-3.672-4.284-3.672    c-12.24,0.612-23.256,4.284-33.66,11.016c-3.672,2.448-0.611,7.956,3.672,6.12c8.568-4.896,17.137-7.344,26.316-7.344    c1.224,4.284,2.448,8.568,3.672,12.852c1.225,4.896,0.612,9.792,3.672,13.464c1.836,2.448,4.896,1.224,6.12-0.612    C378.5,45.656,376.663,40.147,375.439,36.476z"/></g><path d="M336.689,48.802c-1.836-5.508-10.403-6.12-11.628,0c-11.016,38.556-33.048,74.052-31.823,115.668   c0,5.508,6.731,7.956,10.403,4.284c5.508-4.896,10.404-9.792,14.688-15.3c1.836,60.588,6.731,166.464-78.948,146.269   c-4.896-1.225-8.568-3.061-12.24-4.896c20.809-19.584,29.988-47.124,12.24-77.724c-4.896-8.568-17.748-15.912-27.54-10.404   c-19.584,9.792-21.42,36.72-18.972,55.692c1.836,13.464,7.344,24.479,15.3,32.436c-18.972,14.076-45.288,20.196-66.708,15.3   c-17.748-4.283-28.152-14.688-32.436-28.151c9.792-6.12,18.36-12.24,25.092-18.36c20.808-18.36,39.168-69.156-3.06-75.888   c-34.272-6.121-40.392,63.647-38.556,83.844c0,2.448,0.612,4.284,0.612,6.732c-15.912,7.344-33.66,11.016-49.572,7.956   C0.09,277.078,3.15,202.414,29.466,179.77c3.06-2.448-1.224-7.956-4.284-5.508c-35.496,26.929-31.212,83.845-1.224,113.833   c18.972,18.359,47.124,12.852,71.604,1.224c16.524,46.512,82.008,42.84,121.788,14.076c22.645,14.688,55.08,14.076,78.336-1.225   c47.124-31.212,37.944-102.815,35.496-153.612c8.568,10.404,17.137,20.808,26.929,30.6c3.672,3.672,11.628,1.224,11.016-4.284   C364.229,130.81,351.378,89.806,336.689,48.802z M107.19,234.238c1.836-9.18,9.792-39.78,25.704-33.048   c23.868,10.404,6.732,38.556-3.672,50.796c-6.732,7.344-14.688,14.076-23.868,19.584   C103.518,259.33,104.742,246.479,107.19,234.238z M205.11,239.746c1.224-8.567,7.344-30.6,21.42-18.359   c6.731,5.508,7.344,17.136,7.344,24.479c0,15.912-6.12,29.376-16.524,40.393C206.334,274.631,202.662,256.271,205.11,239.746z    M320.778,130.81c-0.612,0.612-1.225,1.224-1.837,1.836c-3.672,6.732-7.956,11.628-12.852,16.524   c3.06-27.54,15.912-53.244,25.092-79.56c9.792,27.54,17.748,55.692,22.032,84.456c-6.732-7.956-13.464-16.524-20.196-25.092   C329.346,124.69,322.614,126.526,320.778,130.81z" transform="matrix(0.18962019681930542 0 0 0.18962019681930542 315 140)" id="L1_30"/><path d="M334.938,154.688c-5.508-4.896-12.853,0-11.628,6.732c2.448,12.24-0.612,24.48-0.612,36.72   c-22.032,0.612-44.063,2.448-66.096,3.06c9.792-23.868,8.567-52.02-10.404-72.216c-26.315-28.152-74.664-34.272-110.16-23.256   c-43.452,14.076-48.348,57.528-28.764,93.636c0.612,1.225,1.224,1.836,2.448,2.448c0.612,0.612,1.224,1.836,1.836,2.448   c1.836,3.06,4.284,6.12,6.732,7.956c-36.72,3.672-80.172-5.509-108.936-11.017c-4.284-0.611-7.344,1.836-7.956,6.12   c-2.448,18.36-1.836,36.108,3.06,53.856c1.224,4.284,7.344,2.448,6.732-1.836c0-1.225,0-1.836-0.612-3.061   c59.364,6.12,133.416,20.196,190.944-3.672c38.556,7.344,80.172-4.284,118.116-12.852c-1.836,12.239-0.612,24.479-0.612,36.72   c0,4.896,5.508,7.956,9.792,5.508c23.256-12.24,52.632-28.764,54.468-58.14C385.734,197.528,352.687,171.212,334.938,154.688z    M191.73,240.98c-1.224,0-2.448,0-3.06-0.612c-3.06-0.611-4.896,1.225-5.508,3.672c-55.692,16.524-116.28,1.225-173.196,4.896   c-0.612-11.016,0-22.032,2.448-33.66c41.616,7.956,85.068,13.464,127.296,5.508c26.928-4.896,61.2-28.152,53.856-59.976   c-9.18-36.72-100.98,0.612-51.408,47.124c-3.672,1.224-7.956,2.448-12.24,3.06c0-0.611-0.612-1.224-0.612-1.836   c-3.06-3.672-6.12-6.731-9.792-9.792c1.224-1.836,1.836-4.284,0.612-7.344c-15.912-35.496-9.792-66.708,31.212-75.888   c29.988-6.732,66.708,1.836,87.516,24.48C272.515,178.557,226.614,226.292,191.73,240.98z M159.906,160.809   c30.6-9.792,18.36,25.704,3.672,36.72c-3.06,2.448-7.344,4.896-11.016,6.732c0-1.225,0-1.836-0.612-3.061   C140.935,184.676,137.262,168.152,159.906,160.809z M331.267,267.297c-1.225-9.792-2.448-19.584-1.225-29.376   c4.896-3.061,1.225-12.853-5.508-11.017c-33.66,6.732-67.932,15.912-102.204,16.524c1.225-1.225,3.061-1.836,4.284-3.061   c9.18-6.731,17.748-15.3,23.868-25.092c0.612,0,1.836,0.612,2.448,0.612c25.704-0.612,51.407-4.284,77.724-4.896   c3.06,0,7.344-3.06,6.732-6.731c-1.225-9.792,0-19.584,0.611-28.764c12.853,11.628,25.092,25.092,31.212,40.392   C377.778,239.145,350.851,256.28,331.267,267.297z" transform="matrix(0.10432559996843338 0 0 0.10432559996843338 67.5 67.5)" id="L1_31"/><path d="M361.771,147.464C361.159,147.464,361.159,147.464,361.771,147.464c0.611-2.448,0.611-4.284-0.612-6.732   c-29.988-41.004-75.888-72.828-119.952-97.308c-2.448-1.224-5.508,0-6.731,1.836c-3.673-1.224-8.568,0.612-8.568,5.508   c-1.225,15.912-0.612,33.048,0.612,49.572C123.703,84.428-34.805,158.48,6.811,282.104c0,0,0,0.612,0.612,0.612   c-1.836,1.836-1.836,5.508,0,7.956c6.12,7.956,15.3,15.3,23.256,22.032c4.896,4.283,15.912,17.136,23.868,12.852c0,0,0,0,0.612,0   c25.704,3.672,50.796-1.836,76.5-5.508c1.836,0,3.06-1.224,3.672-2.448c2.448,0.612,4.896-1.224,4.896-3.672   c1.224-47.124,43.452-69.156,85.68-70.992c2.448,0,4.284-2.448,4.896-4.284c0.612,0.612,1.836,1.225,2.448,1.225   c-0.612,1.836,0.612,3.672,1.836,4.896c-1.224,1.836-1.836,4.896,0.612,6.12c7.956,6.732,17.748,10.404,25.704,17.748   c1.836,1.836,5.508,2.448,7.956,1.225c26.928-17.748,53.855-36.108,76.5-58.752C358.711,197.037,381.967,165.212,361.771,147.464z    M130.435,307.808c-1.224-0.611-2.448-0.611-3.672-0.611c-23.868,3.672-47.124,9.792-71.604,7.344h-0.612   c-1.224-1.836-3.672-3.061-4.896-4.284c-4.284-3.06-8.568-6.732-12.852-10.404c-4.284-3.672-8.568-7.344-12.852-11.016   c24.48,1.224,48.96,0.612,72.828-3.061c2.448-0.611,3.672-1.836,4.284-3.06c1.224-0.612,1.836-1.836,1.836-3.06   c7.344-59.364,69.156-83.232,123.012-82.62c0,0.611,0,1.224-0.612,1.836c-0.612,9.18-2.448,23.256,0.612,33.048   C183.067,225.8,124.927,260.684,130.435,307.808z M228.355,183.572c-53.244-3.06-137.7,25.704-134.641,89.965   c-25.092,1.836-50.796,2.447-75.888,3.672C-6.041,162.764,128.599,95.444,227.131,113.192l0,0v0.612c0.612,6.12,9.181,6.12,9.792,0   c1.836-19.584,3.061-40.392,1.836-59.976c37.332,29.376,77.725,54.468,108.324,91.8c-36.72,25.704-71.604,54.468-105.264,84.457   c-0.612-4.284-1.225-9.181-1.836-13.464c-0.612-5.509-1.225-11.628-1.836-17.137c0-2.447-1.225-4.283-3.061-5.508   C236.312,190.304,233.863,184.184,228.355,183.572z M315.259,220.292c-11.628,9.792-24.479,18.359-37.332,27.54   c-4.283,3.06-9.18,6.12-13.464,9.18c-1.224,0.612-15.3-8.568-21.42-12.24c37.944-28.151,74.052-58.14,111.384-86.904   C358.099,184.796,335.455,203.157,315.259,220.292z" transform="matrix(0.10819642245769501 0 0 0.10819642245769501 242.5 67.5)" id="L1_32"/></defs><g fi:class="KUsePattern"><pattern id="pattern_L1_23" width="350" height="350" patternUnits="userSpaceOnUse"><use xlink:href="#L1_23" x="-350" y="-350"/><use xlink:href="#L1_23" x="0" y="-350"/><use xlink:href="#L1_23" x="350" y="-350"/><use xlink:href="#L1_23" x="-350" y="0"/><use xlink:href="#L1_23" x="0" y="0"/><use xlink:href="#L1_23" x="350" y="0"/><use xlink:href="#L1_23" x="-350" y="350"/><use xlink:href="#L1_23" x="0" y="350"/><use xlink:href="#L1_23" x="350" y="350"/></pattern><rect x="0" y="0" width="100%" height="100%" fill="url(#pattern_L1_23)"/></g><g fi:class="KUsePattern"><pattern id="pattern_L1_24" width="350" height="350" patternUnits="userSpaceOnUse"><use xlink:href="#L1_24" x="-350" y="-350"/><use xlink:href="#L1_24" x="0" y="-350"/><use xlink:href="#L1_24" x="350" y="-350"/><use xlink:href="#L1_24" x="-350" y="0"/><use xlink:href="#L1_24" x="0" y="0"/><use xlink:href="#L1_24" x="350" y="0"/><use xlink:href="#L1_24" x="-350" y="350"/><use xlink:href="#L1_24" x="0" y="350"/><use xlink:href="#L1_24" x="350" y="350"/></pattern><rect x="0" y="0" width="100%" height="100%" fill="url(#pattern_L1_24)"/></g><g fi:class="KUsePattern"><pattern id="pattern_L1_25" width="350" height="350" patternUnits="userSpaceOnUse"><use xlink:href="#L1_25" x="-350" y="-350"/><use xlink:href="#L1_25" x="0" y="-350"/><use xlink:href="#L1_25" x="350" y="-350"/><use xlink:href="#L1_25" x="-350" y="0"/><use xlink:href="#L1_25" x="0" y="0"/><use xlink:href="#L1_25" x="350" y="0"/><use xlink:href="#L1_25" x="-350" y="350"/><use xlink:href="#L1_25" x="0" y="350"/><use xlink:href="#L1_25" x="350" y="350"/></pattern><rect x="0" y="0" width="100%" height="100%" fill="url(#pattern_L1_25)"/></g><g fi:class="KUsePattern"><pattern id="pattern_L1_26" width="350" height="350" patternUnits="userSpaceOnUse"><use xlink:href="#L1_26" x="-350" y="-350"/><use xlink:href="#L1_26" x="0" y="-350"/><use xlink:href="#L1_26" x="350" y="-350"/><use xlink:href="#L1_26" x="-350" y="0"/><use xlink:href="#L1_26" x="0" y="0"/><use xlink:href="#L1_26" x="350" y="0"/><use xlink:href="#L1_26" x="-350" y="350"/><use xlink:href="#L1_26" x="0" y="350"/><use xlink:href="#L1_26" x="350" y="350"/></pattern><rect x="0" y="0" width="100%" height="100%" fill="url(#pattern_L1_26)"/></g><g fi:class="KUsePattern"><pattern id="pattern_L1_27" width="350" height="350" patternUnits="userSpaceOnUse"><use xlink:href="#L1_27" x="-350" y="-350"/><use xlink:href="#L1_27" x="0" y="-350"/><use xlink:href="#L1_27" x="350" y="-350"/><use xlink:href="#L1_27" x="-350" y="0"/><use xlink:href="#L1_27" x="0" y="0"/><use xlink:href="#L1_27" x="350" y="0"/><use xlink:href="#L1_27" x="-350" y="350"/><use xlink:href="#L1_27" x="0" y="350"/><use xlink:href="#L1_27" x="350" y="350"/></pattern><rect x="0" y="0" width="100%" height="100%" fill="url(#pattern_L1_27)"/></g><g fi:class="KUsePattern"><pattern id="pattern_L1_28" width="350" height="350" patternUnits="userSpaceOnUse"><use xlink:href="#L1_28" x="-350" y="-350"/><use xlink:href="#L1_28" x="0" y="-350"/><use xlink:href="#L1_28" x="350" y="-350"/><use xlink:href="#L1_28" x="-350" y="0"/><use xlink:href="#L1_28" x="0" y="0"/><use xlink:href="#L1_28" x="350" y="0"/><use xlink:href="#L1_28" x="-350" y="350"/><use xlink:href="#L1_28" x="0" y="350"/><use xlink:href="#L1_28" x="350" y="350"/></pattern><rect x="0" y="0" width="100%" height="100%" fill="url(#pattern_L1_28)"/></g><g fi:class="KUsePattern"><pattern id="pattern_L1_29" width="350" height="350" patternUnits="userSpaceOnUse"><use xlink:href="#L1_29" x="-350" y="-350"/><use xlink:href="#L1_29" x="0" y="-350"/><use xlink:href="#L1_29" x="350" y="-350"/><use xlink:href="#L1_29" x="-350" y="0"/><use xlink:href="#L1_29" x="0" y="0"/><use xlink:href="#L1_29" x="350" y="0"/><use xlink:href="#L1_29" x="-350" y="350"/><use xlink:href="#L1_29" x="0" y="350"/><use xlink:href="#L1_29" x="350" y="350"/></pattern><rect x="0" y="0" width="100%" height="100%" fill="url(#pattern_L1_29)"/></g><g fi:class="KUsePattern"><pattern id="pattern_L1_30" width="350" height="350" patternUnits="userSpaceOnUse"><use xlink:href="#L1_30" x="-350" y="-350"/><use xlink:href="#L1_30" x="0" y="-350"/><use xlink:href="#L1_30" x="350" y="-350"/><use xlink:href="#L1_30" x="-350" y="0"/><use xlink:href="#L1_30" x="0" y="0"/><use xlink:href="#L1_30" x="350" y="0"/><use xlink:href="#L1_30" x="-350" y="350"/><use xlink:href="#L1_30" x="0" y="350"/><use xlink:href="#L1_30" x="350" y="350"/></pattern><rect x="0" y="0" width="100%" height="100%" fill="url(#pattern_L1_30)"/></g><g fi:class="KUsePattern"><pattern id="pattern_L1_31" width="350" height="350" patternUnits="userSpaceOnUse"><use xlink:href="#L1_31" x="-350" y="-350"/><use xlink:href="#L1_31" x="0" y="-350"/><use xlink:href="#L1_31" x="350" y="-350"/><use xlink:href="#L1_31" x="-350" y="0"/><use xlink:href="#L1_31" x="0" y="0"/><use xlink:href="#L1_31" x="350" y="0"/><use xlink:href="#L1_31" x="-350" y="350"/><use xlink:href="#L1_31" x="0" y="350"/><use xlink:href="#L1_31" x="350" y="350"/></pattern><rect x="0" y="0" width="100%" height="100%" fill="url(#pattern_L1_31)"/></g><g fi:class="KUsePattern"><pattern id="pattern_L1_32" width="350" height="350" patternUnits="userSpaceOnUse"><use xlink:href="#L1_32" x="-350" y="-350"/><use xlink:href="#L1_32" x="0" y="-350"/><use xlink:href="#L1_32" x="350" y="-350"/><use xlink:href="#L1_32" x="-350" y="0"/><use xlink:href="#L1_32" x="0" y="0"/><use xlink:href="#L1_32" x="350" y="0"/><use xlink:href="#L1_32" x="-350" y="350"/><use xlink:href="#L1_32" x="0" y="350"/><use xlink:href="#L1_32" x="350" y="350"/></pattern><rect x="0" y="0" width="100%" height="100%" fill="url(#pattern_L1_32)"/></g></svg>