<svg xmlns="http://www.w3.org/2000/svg" width="1475.074" height="560.348" viewBox="0 0 1475.074 560.348">
  <defs>
    <style>
      .cls-1, .cls-2, .cls-3 {
        fill: #fff;
      }

      .cls-2 {
        stroke: #10dddd;
        stroke-width: 0.1px;
      }

      .cls-2, .cls-3 {
        stroke-miterlimit: 10;
      }

      .cls-3 {
        stroke: #fff;
        stroke-width: 0.25px;
      }
    </style>
  </defs>
  <g id="Grupo_9857" data-name="Grupo 9857" transform="translate(24290.762 -19354.648)">
    <g id="Grupo_2002" data-name="Grupo 2002" transform="translate(-23501.941 19492.268)">
      <g id="Grupo_3727" data-name="Grupo 3727" transform="translate(0 12.547)">
        <path id="Trazado_3595" data-name="Trazado 3595" class="cls-1" d="M1078.643,926.719,1027,926.713V912.438l51.643.006a81.945,81.945,0,0,0,0-163.889l-51.619-.275.068-14.275,51.584.275a96.22,96.22,0,0,1-.033,192.44Z" transform="translate(-527.295 -695.447)"/>
        <path id="Trazado_3596" data-name="Trazado 3596" class="cls-1" d="M1079.142,970.854h-52.122V956.573l52.122-.021a120.125,120.125,0,0,0,0-240.249h-52.254V702h52.254c74.124,0,134.428,60.3,134.428,134.428S1153.266,970.854,1079.142,970.854Z" transform="translate(-527.316 -701.513)"/>
        <path id="Trazado_3597" data-name="Trazado 3597" class="cls-1" d="M891.4,926.71H817V912.435h74.4c14.376,0,22.769-.078,28.066-1.689,3.79-1.154,16.883-6.153,26.193-22.046,10.221-17.449,4.951-34.624,2.211-41.2l-.145-.361c-.245-.627-6.6-16.4-26.185-23.767-9.918-3.732-20.791-3.921-22.87-3.921-11.637,0-22.986-9.12-25.839-20.761-1.88-7.678.708-15.407,3.909-19.339,1.423-1.745,3.349-4.142,5.569-6.905,6.39-7.952,14.51-16.863,20.722-24.12H817V734.054h94.9c6.7-.058,9.471,3.043,10.6,5.665.944,2.185,1.769,6.638-3.3,11.915-5.477,5.7-17.69,19.7-25.771,29.759-2.244,2.791-4.19,5.212-5.627,6.976a9.636,9.636,0,0,0-1.114,6.928c1.29,5.265,6.885,9.882,11.974,9.882,3.53,0,15.974.349,27.9,4.836,24.989,9.4,33.607,29.788,34.458,31.944l.022.052c3.563,8.548,10.394,30.913-3.071,53.9-11.6,19.809-27.891,26.522-34.357,28.489C916.383,926.6,907.13,926.71,891.4,926.71Z" transform="translate(-567.109 -695.431)"/>
        <path id="Trazado_3598" data-name="Trazado 3598" class="cls-1" d="M909.792,970.926H817V956.651h92.788c19.431,0,39.442-8.785,54.9-24.1,15.761-15.617,24.8-36.316,24.8-56.789,0-40.527-19.255-68.3-57.227-82.537l-8.832-3.312,35.327-48.045c3.407-4.635,3.7-11.687.738-17.55-1.285-2.54-5.143-8.45-13.176-8.45l-129.3.353-.041-14.275L946.3,701.59c11.089,0,20.777,6.086,25.934,16.281,5.42,10.711,4.643,23.449-1.974,32.449l-24.355,33.122c28.151,12.914,57.86,39.145,57.86,92.316,0,24.256-10.581,48.65-29.029,66.929C956.63,960.634,932.957,970.926,909.792,970.926Z" transform="translate(-567.11 -701.59)"/>
        <rect id="Rect치ngulo_2557" data-name="Rect치ngulo 2557" class="cls-2" width="1.306" height="14.249" transform="translate(185.694 268.039) rotate(90)"/>
        <path id="Trazado_3599" data-name="Trazado 3599" class="cls-1" d="M607,703.318v11.639a1.318,1.318,0,0,0,1.318,1.318h66.489s2.38-.071,8.327,0c12.526.151,23.583,4.017,28.551,5.948,19.99,7.767,54.722,33.187,54.722,80.893,0,58.29-52.342,80.892-64.864,82.925a1.007,1.007,0,0,0-.536,1.677s-.029-.142,77.292,83.127l.008,0h15.46l-71.375-77.324s58.29-24.981,58.29-91.6S722.391,702,685.513,702h-77.2A1.318,1.318,0,0,0,607,703.318Z" transform="translate(-606.924 -701.513)"/>
        <path id="Trazado_3600" data-name="Trazado 3600" class="cls-1" d="M606.937,734V748.28h59.555l10.706-.006c15.465,0,50.563,9.517,50.563,49.969,0,27.36-24.982,48.773-52.065,47.584-18.143-.8-27.638,11.9-28.55,22.6-.915,10.734,3.157,17.036,13.085,27.361,66.425,69.083,66.539,69,66.538,69h16.655s-.13.072-76.332-80.893c-3.192-3.391-9.437-10.517-3.569-19.034a12.265,12.265,0,0,1,9.517-4.758c13.649,0,23.7-.967,35.965-8.327,14.712-8.827,32.119-27.361,32.119-53.532,0-30.93-22.29-64.244-65.488-64.238Z" transform="translate(-606.937 -695.447)"/>
      </g>
    </g>
    <g id="Grupo_4318" data-name="Grupo 4318" transform="translate(-24290.762 19354.648)">
      <path id="Trazado_929" data-name="Trazado 929" class="cls-3" d="M-211.267,142.648" transform="translate(527.963 197.758)"/>
      <path id="Trazado_930" data-name="Trazado 930" class="cls-3" d="M-229.767,107.3" transform="translate(485.7 117.014)"/>
      <path id="Sustracci칩n_98" data-name="Sustracci칩n 98" class="cls-1" d="M280.176,560.347a282.31,282.31,0,0,1-56.464-5.692A278.669,278.669,0,0,1,123.524,512.5,281,281,0,0,1,22.016,389.233,278.638,278.638,0,0,1,5.693,336.642a282.855,282.855,0,0,1,0-112.929A278.548,278.548,0,0,1,47.848,123.528,280.953,280.953,0,0,1,171.121,22.017a278.712,278.712,0,0,1,52.59-16.324,282.855,282.855,0,0,1,112.929,0A278.646,278.646,0,0,1,436.822,47.85,280.98,280.98,0,0,1,538.329,171.12a278.852,278.852,0,0,1,16.325,52.593,282.978,282.978,0,0,1,0,112.929A278.655,278.655,0,0,1,512.5,436.824,280.991,280.991,0,0,1,389.228,538.331a278.729,278.729,0,0,1-52.588,16.324A282.271,282.271,0,0,1,280.176,560.347Zm-3.12-478.383a73.1,73.1,0,0,0-37.242,10.3C195.661,118.014,129.3,156.35,128.808,156.637c-10.6,7.419-18.691,14.128-23.775,22.759-4.911,8.336-6.937,18.436-6.572,32.747l-.228,135.422c-.238,11.457,1.708,21.158,5.952,29.656,3.49,6.989,8.639,13.264,15.742,19.181,2.187,1.823,12.011,7.73,13.856,8.817l108.254,64.445a68.74,68.74,0,0,0,18.033,7.5,78.883,78.883,0,0,0,39.408,0,68.72,68.72,0,0,0,18.041-7.5L434.91,401.034c9.958-5.534,16.571-10.85,20.816-16.727,4.574-6.336,6.7-13.644,6.7-23l.231-148.472c-.311-14.936-2.412-24.786-7.03-32.935-5.071-8.948-13.4-16.2-26.994-23.529L321.953,94.476C306.537,86.174,291.433,81.964,277.056,81.964Z" transform="translate(0 0)"/>
      <path id="Trazado_932" data-name="Trazado 932" class="cls-1" d="M-149.507,88.125l102.527,59.3a1.07,1.07,0,0,1,.535.93l-.089,118.436a1.074,1.074,0,0,1-.539.93l-102.613,59.142a1.08,1.08,0,0,1-1.074,0l-102.527-59.3a1.071,1.071,0,0,1-.535-.93l.089-118.436a1.073,1.073,0,0,1,.539-.929s76.556-44.524,102.107-59.307A2.289,2.289,0,0,1-149.507,88.125Z" transform="translate(430.756 72.648)"/>
    </g>
  </g>
</svg>
